<svg width="20" height="16" viewBox="0 0 20 16" fill="none" xmlns="http://www.w3.org/2000/svg">
<path d="M12.109 1.10414C12.4743 0.941781 12.8789 0.851562 13.3045 0.851562C14.932 0.851562 16.2514 2.17095 16.2514 3.79851C16.2514 5.42606 14.932 6.74545 13.3045 6.74545C12.8794 6.74545 12.4753 6.65545 12.1103 6.49346M13.797 9.22074C17.5989 9.44528 18.821 12.009 19.2134 13.6906C19.3993 14.4875 18.7424 15.1487 17.9241 15.1487H15.59M9.75121 3.79855C9.75121 5.4261 8.43182 6.74549 6.80427 6.74549C5.17671 6.74549 3.85732 5.4261 3.85732 3.79855C3.85732 2.171 5.17671 0.851604 6.80427 0.851604C8.43182 0.851604 9.75121 2.171 9.75121 3.79855ZM6.74941 9.20495C10.9833 9.20495 12.3026 11.9309 12.7132 13.6906C12.8991 14.4875 12.2422 15.1487 11.4239 15.1487H2.07489C1.25661 15.1487 0.599726 14.4875 0.785649 13.6906C1.19623 11.9309 2.51554 9.20495 6.74941 9.20495Z" stroke="#1D2939" stroke-width="1.5" stroke-linecap="round" stroke-linejoin="round"/>
</svg>
