<svg width="18" height="18" viewBox="0 0 18 18" fill="none" xmlns="http://www.w3.org/2000/svg">
<path d="M1 2.5C1 1.67157 1.67157 1 2.5 1H6C6.82843 1 7.5 1.67157 7.5 2.5V5.99998C7.5 6.82841 6.82843 7.49998 6 7.49998H2.5C1.67157 7.49998 1 6.82841 1 5.99998V2.5Z" stroke="#3758F9" stroke-width="1.5" stroke-linecap="round" stroke-linejoin="round"/>
<path d="M1 12C1 11.1716 1.67157 10.5 2.5 10.5H6C6.82843 10.5 7.5 11.1716 7.5 12V15.5C7.5 16.3284 6.82843 17 6 17H2.5C1.67157 17 1 16.3284 1 15.5V12Z" stroke="#3758F9" stroke-width="1.5" stroke-linecap="round" stroke-linejoin="round"/>
<path d="M10.5 2.5C10.5 1.67157 11.1716 1 12 1H15.5C16.3284 1 17 1.67157 17 2.5V5.99998C17 6.82841 16.3284 7.49998 15.5 7.49998H12C11.1716 7.49998 10.5 6.82841 10.5 5.99998V2.5Z" stroke="#3758F9" stroke-width="1.5" stroke-linecap="round" stroke-linejoin="round"/>
<path d="M10.5 12C10.5 11.1716 11.1716 10.5 12 10.5H15.5C16.3284 10.5 17 11.1716 17 12V15.5C17 16.3284 16.3284 17 15.5 17H12C11.1716 17 10.5 16.3284 10.5 15.5V12Z" stroke="#3758F9" stroke-width="1.5" stroke-linecap="round" stroke-linejoin="round"/>
</svg>
