<svg width="18" height="16" viewBox="0 0 18 16" fill="none" xmlns="http://www.w3.org/2000/svg">
<path d="M13.6533 3.90421C13.6533 2.48439 12.5023 1.33337 11.0825 1.33337C9.66269 1.33337 8.5117 2.48439 8.51168 3.90421M13.6533 3.90421C13.6533 5.32404 12.5023 6.47504 11.0825 6.47504C9.66268 6.47504 8.51168 5.32404 8.51168 3.90421M13.6533 3.90421L16.7083 3.90417M8.51168 3.90421L1.29163 3.90417M4.34658 12.0959C4.34658 10.676 5.49758 9.52504 6.91741 9.52504C8.33724 9.52504 9.48824 10.676 9.48824 12.0959M4.34658 12.0959C4.34658 13.5157 5.49758 14.6667 6.91741 14.6667C8.33724 14.6667 9.48824 13.5157 9.48824 12.0959M4.34658 12.0959L1.29163 12.0958M9.48824 12.0959L16.7083 12.0958" stroke="#344054" stroke-width="1.5" stroke-linecap="round" stroke-linejoin="round"/>
</svg>
