<svg width="20" height="20" viewBox="0 0 20 20" fill="none" xmlns="http://www.w3.org/2000/svg">
<path d="M10 19.072V9.02882M10 9.02882C9.77031 9.02876 9.54064 8.97598 9.32963 8.87047M10 9.02882C10.23 9.02889 10.46 8.97611 10.6712 8.87047M10.6712 8.87047C10.249 9.08161 9.75191 9.08161 9.32963 8.87047M10.6712 8.87047L18.2212 5.09562M9.32963 8.87047L1.7797 5.09562M18.2212 5.09562C18.078 4.87199 17.8754 4.68611 17.6287 4.56277L10.6712 1.08413C10.249 0.872998 9.75191 0.872997 9.32963 1.08413L2.37216 4.56277C2.12546 4.68611 1.92287 4.87199 1.7797 5.09562M18.2212 5.09562C18.3729 5.33264 18.4579 5.61207 18.4579 5.90441V14.0934C18.4579 14.6615 18.1369 15.1809 17.6287 15.435L10.6712 18.9137C10.249 19.1248 9.75191 19.1248 9.32963 18.9137L2.37216 15.435C1.86398 15.1809 1.54297 14.6615 1.54297 14.0934V5.90441C1.54297 5.61207 1.62796 5.33264 1.7797 5.09562" stroke="#667085" stroke-width="1.5" stroke-linecap="round" stroke-linejoin="round"/>
</svg>
