<svg width="20" height="20" viewBox="0 0 20 20" fill="none" xmlns="http://www.w3.org/2000/svg">
<path d="M15.7746 17.1074V16.8455C15.7746 14.3602 13.7599 12.3455 11.2746 12.3455H8.72461C6.23933 12.3455 4.22461 14.3602 4.22461 16.8455V17.1074M19.25 10C19.25 15.1086 15.1086 19.25 10 19.25C4.89137 19.25 0.75 15.1086 0.75 10C0.75 4.89137 4.89137 0.75 10 0.75C15.1086 0.75 19.25 4.89137 19.25 10ZM12.7669 7.26784C12.7669 8.79647 11.5277 10.0357 9.99911 10.0357C8.47048 10.0357 7.23128 8.79647 7.23128 7.26784C7.23128 5.7392 8.47048 4.5 9.99911 4.5C11.5277 4.5 12.7669 5.7392 12.7669 7.26784Z" stroke="#344054" stroke-width="1.5" stroke-linecap="round" stroke-linejoin="round"/>
</svg>
