<svg width="20" height="20" viewBox="0 0 20 20" fill="none" xmlns="http://www.w3.org/2000/svg">
<path d="M4.77479 3.51906C4.06492 3.10922 3.15711 3.35238 2.74726 4.06225L1.23127 6.68803C0.82152 7.39774 1.06469 8.30524 1.7744 8.71499C2.76361 9.28611 2.76362 10.7139 1.77441 11.285C1.06471 11.6948 0.821544 12.6023 1.23129 13.312L2.7473 15.9378C3.15714 16.6476 4.06495 16.8908 4.77481 16.481C5.76413 15.9098 7.00096 16.6237 7.00096 17.766C7.00096 18.5856 7.66536 19.25 8.48494 19.25H11.5173C12.3367 19.25 13.001 18.5856 13.001 17.7663C13.001 16.6243 14.2372 15.9104 15.2261 16.4813C15.9356 16.891 16.8429 16.6479 17.2525 15.9384L18.7689 13.3119C19.1787 12.6022 18.9355 11.6948 18.2258 11.285C17.2366 10.7139 17.2366 9.28612 18.2258 8.71501C18.9355 8.30527 19.1787 7.39779 18.7689 6.6881L17.2526 4.06167C16.8429 3.35214 15.9357 3.10904 15.2261 3.51869C14.2372 4.08967 13.001 3.37573 13.001 2.23377C13.001 1.41437 12.3367 0.75 11.5173 0.75L8.48495 0.75C7.66537 0.75 7.00096 1.41441 7.00096 2.23399C7.00096 3.37637 5.76412 4.09025 4.77479 3.51906Z" stroke="#667085" stroke-width="1.5" stroke-linecap="round" stroke-linejoin="round"/>
<path d="M13.085 9.99992C13.085 11.7037 11.7038 13.0849 10 13.0849C8.29624 13.0849 6.91504 11.7037 6.91504 9.99992C6.91504 8.29613 8.29624 6.91493 10 6.91493C11.7038 6.91493 13.085 8.29613 13.085 9.99992Z" stroke="#667085" stroke-width="1.5" stroke-linecap="round" stroke-linejoin="round"/>
</svg>
