<svg width="10" height="10" viewBox="0 0 10 10" fill="none" xmlns="http://www.w3.org/2000/svg">
<path d="M2.27699 9.69602C1.9304 9.69602 1.61222 9.6108 1.32244 9.44034C1.03267 9.26705 0.802557 9.03693 0.632102 8.75C0.461648 8.46023 0.376421 8.14205 0.376421 7.79545C0.376421 7.44602 0.461648 7.12784 0.632102 6.84091C0.802557 6.55114 1.03267 6.3196 1.32244 6.14631C1.61222 5.97301 1.9304 5.88636 2.27699 5.88636H3.21449V4.37784H2.27699C1.9304 4.37784 1.61222 4.29261 1.32244 4.12216C1.03267 3.9517 0.802557 3.72301 0.632102 3.43608C0.461648 3.14631 0.376421 2.8267 0.376421 2.47727C0.376421 2.12784 0.461648 1.80966 0.632102 1.52273C0.802557 1.2358 1.03267 1.0071 1.32244 0.836647C1.61222 0.663352 1.9304 0.576704 2.27699 0.576704C2.62642 0.576704 2.9446 0.663352 3.23153 0.836647C3.52131 1.0071 3.75142 1.2358 3.92188 1.52273C4.09517 1.80966 4.18182 2.12784 4.18182 2.47727V3.40625H5.6946V2.47727C5.6946 2.12784 5.77983 1.80966 5.95028 1.52273C6.12074 1.2358 6.34943 1.0071 6.63636 0.836647C6.92614 0.663352 7.24574 0.576704 7.59517 0.576704C7.9446 0.576704 8.26278 0.663352 8.54972 0.836647C8.83665 1.0071 9.06534 1.2358 9.2358 1.52273C9.40625 1.80966 9.49148 2.12784 9.49148 2.47727C9.49148 2.8267 9.40625 3.14631 9.2358 3.43608C9.06534 3.72301 8.83665 3.9517 8.54972 4.12216C8.26278 4.29261 7.9446 4.37784 7.59517 4.37784H6.66193V5.88636H7.59517C7.9446 5.88636 8.26278 5.97301 8.54972 6.14631C8.83665 6.3196 9.06534 6.55114 9.2358 6.84091C9.40625 7.12784 9.49148 7.44602 9.49148 7.79545C9.49148 8.14205 9.40625 8.46023 9.2358 8.75C9.06534 9.03693 8.83665 9.26705 8.54972 9.44034C8.26278 9.6108 7.9446 9.69602 7.59517 9.69602C7.24574 9.69602 6.92614 9.6108 6.63636 9.44034C6.34943 9.26705 6.12074 9.03693 5.95028 8.75C5.77983 8.46023 5.6946 8.14205 5.6946 7.79545V6.85795H4.18182V7.79545C4.18182 8.14205 4.09517 8.46023 3.92188 8.75C3.75142 9.03693 3.52131 9.26705 3.23153 9.44034C2.9446 9.6108 2.62642 9.69602 2.27699 9.69602ZM2.27699 8.72443C2.45028 8.72443 2.60653 8.68324 2.74574 8.60085C2.88778 8.51847 3.00142 8.40625 3.08665 8.2642C3.17188 8.12216 3.21449 7.96591 3.21449 7.79545V6.85795H2.27699C2.10653 6.85795 1.95028 6.90057 1.80824 6.9858C1.66619 7.06818 1.55256 7.1804 1.46733 7.32244C1.38494 7.46449 1.34375 7.62216 1.34375 7.79545C1.34375 7.96591 1.38494 8.12216 1.46733 8.2642C1.55256 8.40625 1.66619 8.51847 1.80824 8.60085C1.95028 8.68324 2.10653 8.72443 2.27699 8.72443ZM2.27699 3.40625H3.21449V2.47727C3.21449 2.30398 3.17188 2.14773 3.08665 2.00852C3.00142 1.86648 2.88778 1.75426 2.74574 1.67188C2.60653 1.58949 2.45028 1.5483 2.27699 1.5483C2.10653 1.5483 1.95028 1.58949 1.80824 1.67188C1.66619 1.75426 1.55256 1.86648 1.46733 2.00852C1.38494 2.14773 1.34375 2.30398 1.34375 2.47727C1.34375 2.65057 1.38494 2.80824 1.46733 2.95028C1.55256 3.08949 1.66619 3.20028 1.80824 3.28267C1.95028 3.36506 2.10653 3.40625 2.27699 3.40625ZM6.66193 3.40625H7.59517C7.76847 3.40625 7.92472 3.36506 8.06392 3.28267C8.20313 3.20028 8.31392 3.08949 8.39631 2.95028C8.48153 2.80824 8.52415 2.65057 8.52415 2.47727C8.52415 2.30398 8.48153 2.14773 8.39631 2.00852C8.31392 1.86648 8.20313 1.75426 8.06392 1.67188C7.92472 1.58949 7.76847 1.5483 7.59517 1.5483C7.42188 1.5483 7.2642 1.58949 7.12216 1.67188C6.98011 1.75426 6.8679 1.86648 6.78551 2.00852C6.70312 2.14773 6.66193 2.30398 6.66193 2.47727V3.40625ZM7.59517 8.72443C7.76847 8.72443 7.92472 8.68324 8.06392 8.60085C8.20313 8.51847 8.31392 8.40625 8.39631 8.2642C8.48153 8.12216 8.52415 7.96591 8.52415 7.79545C8.52415 7.62216 8.48153 7.46449 8.39631 7.32244C8.31392 7.1804 8.20313 7.06818 8.06392 6.9858C7.92472 6.90057 7.76847 6.85795 7.59517 6.85795H6.66193V7.79545C6.66193 7.96591 6.70312 8.12216 6.78551 8.2642C6.8679 8.40625 6.98011 8.51847 7.12216 8.60085C7.2642 8.68324 7.42188 8.72443 7.59517 8.72443ZM4.18182 5.88636H5.6946V4.37784H4.18182V5.88636Z" fill="#667085"/>
</svg>
