<svg width="16" height="16" viewBox="0 0 16 16" fill="none" xmlns="http://www.w3.org/2000/svg">
<path d="M8 1.33362C10.9094 1.33362 13.3811 3.19866 14.291 5.79749C14.3009 5.8197 14.3078 5.84303 14.3145 5.86682C14.5407 6.53687 14.666 7.25425 14.666 8.00061C14.666 8.74895 14.54 9.46772 14.3125 10.1393C14.3064 10.1603 14.3007 10.1811 14.292 10.2008C13.3828 12.8008 10.9102 14.6666 8 14.6666C5.09337 14.6666 2.62287 12.8056 1.71094 10.2106C1.69412 10.1745 1.68068 10.1365 1.67285 10.0963C1.45461 9.43709 1.33403 8.73297 1.33398 8.00061C1.334 7.26772 1.45433 6.56259 1.67285 5.90295C1.68085 5.86242 1.69476 5.82409 1.71191 5.78772C2.62451 3.19391 5.09423 1.33363 8 1.33362ZM6.0752 10.5006C6.20139 11.1274 6.37004 11.6894 6.57422 12.1617C6.79925 12.6823 7.05368 13.0724 7.31152 13.3248C7.56717 13.575 7.79945 13.6666 8 13.6666C8.20056 13.6666 8.43279 13.575 8.68848 13.3248C8.94637 13.0724 9.20168 12.6824 9.42676 12.1617C9.63093 11.6894 9.79958 11.1274 9.92578 10.5006H6.0752ZM2.91504 10.5006C3.55526 11.8003 4.67841 12.8189 6.05078 13.3219C5.90637 13.0886 5.77458 12.832 5.65625 12.5582C5.3998 11.9649 5.19466 11.2676 5.05371 10.5006H2.91504ZM10.9463 10.5006C10.8053 11.2677 10.6013 11.9658 10.3447 12.5592C10.2263 12.833 10.0927 13.0885 9.94824 13.3219C11.321 12.819 12.4446 11.8006 13.085 10.5006H10.9463ZM2.53613 6.50061C2.40533 6.97835 2.334 7.48139 2.33398 8.00061C2.33402 8.51996 2.40524 9.02277 2.53613 9.50061H4.91406C4.86372 9.0172 4.83398 8.51454 4.83398 7.99963C4.834 7.48536 4.86286 6.98345 4.91309 6.50061H2.53613ZM5.91992 6.50061C5.86636 6.97725 5.834 7.47937 5.83398 7.99963C5.83398 8.5205 5.86625 9.02344 5.91992 9.50061H10.0811C10.1347 9.02346 10.166 8.52048 10.166 7.99963C10.166 7.4794 10.1346 6.97723 10.0811 6.50061H5.91992ZM11.0869 6.50061C11.1372 6.98346 11.166 7.48535 11.166 7.99963C11.166 8.51455 11.1363 9.01719 11.0859 9.50061H13.4639C13.5948 9.02277 13.666 8.51997 13.666 8.00061C13.666 7.48138 13.5947 6.97835 13.4639 6.50061H11.0869ZM6.0498 2.67737C4.67744 3.18047 3.55515 4.20079 2.91504 5.50061H5.05371C5.1947 4.73299 5.39958 4.03472 5.65625 3.44104C5.77458 3.1674 5.90541 2.9106 6.0498 2.67737ZM8 2.33362C7.79942 2.33362 7.56713 2.42537 7.31152 2.67542C7.05367 2.92771 6.79927 3.31799 6.57422 3.8385C6.36992 4.31107 6.20141 4.87337 6.0752 5.50061H9.92578C9.79956 4.87344 9.63105 4.31104 9.42676 3.8385C9.20166 3.31795 8.94638 2.92772 8.68848 2.67542C8.43283 2.42536 8.20059 2.33362 8 2.33362ZM10.0283 2.8092C10.1422 3.00627 10.2482 3.21779 10.3447 3.44104C10.6014 4.03471 10.8053 4.733 10.9463 5.50061H13.085C12.4446 4.20024 11.3214 3.18024 9.94824 2.67737L10.0283 2.8092Z" fill="white"/>
</svg>
