<svg width="24" height="24" viewBox="0 0 24 24" fill="none" xmlns="http://www.w3.org/2000/svg">
<path d="M14.083 13.3857C17.7871 13.3857 20.7898 16.3887 20.79 20.0928V20.4395C20.79 20.8537 20.4543 21.1895 20.04 21.1895C19.6259 21.1893 19.29 20.8536 19.29 20.4395V20.0928C19.2898 17.2171 16.9587 14.8857 14.083 14.8857H10.707C7.83142 14.8859 5.50027 17.2172 5.5 20.0928V20.4395C5.5 20.8537 5.16421 21.1895 4.75 21.1895C4.33579 21.1895 4 20.8537 4 20.4395V20.0928C4.00027 16.3888 7.00299 13.3859 10.707 13.3857H14.083ZM12.3945 3C14.8323 3.0001 16.8085 4.9763 16.8086 7.41406C16.8086 9.85187 14.8323 11.828 12.3945 11.8281C9.9567 11.8281 7.98047 9.8519 7.98047 7.41406C7.98051 4.97626 9.95673 3.00004 12.3945 3ZM12.3945 4.5C10.7852 4.50004 9.48051 5.80469 9.48047 7.41406C9.48047 9.02347 10.7851 10.3281 12.3945 10.3281C14.0039 10.328 15.3086 9.02344 15.3086 7.41406C15.3085 5.80472 14.0039 4.5001 12.3945 4.5Z" fill="#374151"/>
</svg>
