<svg width="16" height="16" viewBox="0 0 16 16" fill="none" xmlns="http://www.w3.org/2000/svg">
<path d="M9.38867 8.92383C11.858 8.924 13.8602 10.9262 13.8604 13.3955V13.626C13.8604 13.902 13.6363 14.1258 13.3604 14.126C13.0843 14.1259 12.8604 13.9021 12.8604 13.626V13.3955C12.8602 11.4785 11.3057 9.924 9.38867 9.92383H7.13867C5.22149 9.92383 3.6671 11.4784 3.66699 13.3955V13.626C3.66699 13.902 3.44298 14.1258 3.16699 14.126C2.89085 14.126 2.66699 13.9021 2.66699 13.626V13.3955C2.6671 10.9261 4.6692 8.92383 7.13867 8.92383H9.38867ZM8.2627 2C9.88776 2.00007 11.2058 3.31736 11.2061 4.94238C11.2061 6.56758 9.88788 7.88568 8.2627 7.88574C6.63763 7.88554 5.32031 6.5675 5.32031 4.94238C5.32052 3.31744 6.63775 2.00021 8.2627 2ZM8.2627 3C7.19004 3.00021 6.32052 3.86973 6.32031 4.94238C6.32031 6.01521 7.18991 6.88554 8.2627 6.88574C9.3356 6.88568 10.2061 6.0153 10.2061 4.94238C10.2058 3.86964 9.33547 3.00007 8.2627 3Z" fill="white"/>
</svg>
