<svg width="121" height="28" viewBox="0 0 121 28" fill="none" xmlns="http://www.w3.org/2000/svg">
<g clip-path="url(#clip0_8_27941)">
<path fill-rule="evenodd" clip-rule="evenodd" d="M7.29192 21.5043C8.47559 21.9353 9.75319 22.1703 11.0851 22.1703C17.2073 22.1703 22.1703 17.2073 22.1703 11.0852C22.1703 4.963 17.2073 0 11.0851 0C4.96299 0 0 4.96307 0 11.0852V26.9139C0 27.913 1.23714 28.3801 1.8975 27.6302C3.69564 25.5882 5.49378 23.5462 7.29192 21.5043ZM15.9303 11.0852C15.9303 13.7611 13.7611 15.9304 11.0851 15.9304C8.40921 15.9304 6.23994 13.7611 6.23994 11.0852C6.23994 8.40922 8.40921 6.23995 11.0851 6.23995C13.7611 6.23995 15.9303 8.40922 15.9303 11.0852Z" fill="#3758F9"/>
<path fill-rule="evenodd" clip-rule="evenodd" d="M30.3632 2.48291H38.9813C40.5363 2.48291 41.9184 2.76931 43.1211 3.34948C44.3464 3.9107 45.3069 4.74496 45.9956 5.85069C46.6879 6.94196 47.0273 8.26479 47.0273 9.80648C47.0273 11.3306 46.6768 12.6533 45.9647 13.7637C45.2764 14.8481 44.3272 15.6813 43.1235 16.2624C41.9201 16.8433 40.5373 17.13 38.9813 17.13H34.9557V25.4086H30.3632V2.48291ZM42.0166 8.12479C41.409 7.07169 40.2157 6.59375 39.0415 6.59375H34.9557V13.0192H39.0415C40.9485 13.0192 42.4348 11.7317 42.4348 9.80648C42.4348 9.14016 42.2923 8.58435 42.0187 8.12847L42.0166 8.12479Z" fill="#232939"/>
<path fill-rule="evenodd" clip-rule="evenodd" d="M49.8836 25.4086V2.48291H54.4761V25.4086H49.8836Z" fill="#232939"/>
<path fill-rule="evenodd" clip-rule="evenodd" d="M62.5801 2.48291L69.9075 12.4366L77.0773 2.48291H81.3676V25.4086H76.745V10.6621L70.1949 19.3878H69.4623L62.884 10.4022V25.4086H58.2914V2.48291H62.5801Z" fill="#232939"/>
<path fill-rule="evenodd" clip-rule="evenodd" d="M120.11 13.9458C120.11 20.5607 114.748 25.923 108.133 25.923C101.518 25.923 96.1564 20.5607 96.1564 13.9458C96.1564 7.33108 101.518 1.96875 108.133 1.96875C114.748 1.96875 120.11 7.33108 120.11 13.9458ZM108.133 21.3355C112.214 21.3355 115.523 18.027 115.523 13.9458C115.523 9.86466 112.214 6.55623 108.133 6.55623C104.052 6.55623 100.744 9.86466 100.744 13.9458C100.744 18.027 104.052 21.3355 108.133 21.3355Z" fill="#232939"/>
<path d="M85.7667 21.1473C86.6814 21.1473 87.3764 20.8914 87.8815 20.4042C87.9497 20.3383 88.0136 20.2696 88.0731 20.1981C88.4739 19.718 88.6786 19.1096 88.6786 18.3559V2.48291H93.3013V18.2054C93.3013 19.6267 92.9915 20.8845 92.365 21.971C91.7586 23.0576 90.8801 23.9033 89.7374 24.5064C88.6104 25.1112 87.2841 25.4086 85.7667 25.4086H84.223V21.1473H85.7667Z" fill="#232939"/>
</g>
<defs>
<clipPath id="clip0_8_27941">
<rect width="120.75" height="28" fill="white"/>
</clipPath>
</defs>
</svg>
